<?xml version="1.0" standalone="no"?>
<!DOCTYPE svg PUBLIC "-//W3C//DTD SVG 1.1//EN" "http://www.w3.org/Graphics/SVG/1.1/DTD/svg11.dtd" >
<svg xmlns="http://www.w3.org/2000/svg">
<metadata></metadata>
<defs>
<font id="sero_promedium" horiz-adv-x="1171" >
<font-face units-per-em="2048" ascent="1593" descent="-455" />
<missing-glyph horiz-adv-x="450" />
<glyph horiz-adv-x="0" />
<glyph horiz-adv-x="0" />
<glyph horiz-adv-x="682" />
<glyph unicode="&#xd;" horiz-adv-x="450" />
<glyph unicode=" "  horiz-adv-x="450" />
<glyph unicode="&#x09;" horiz-adv-x="450" />
<glyph unicode="&#xa0;" horiz-adv-x="450" />
<glyph unicode="!" horiz-adv-x="671" d="M184 121q0 62 42.5 103.5t109.5 41.5t109 -41.5t42 -103.5t-42 -104t-109 -42t-109.5 42t-42.5 104zM190 1475h293l-47 -1037h-198z" />
<glyph unicode="&#x22;" horiz-adv-x="876" d="M145 1475h211l-16 -564h-178zM520 1475h211l-16 -564h-178z" />
<glyph unicode="#" d="M27 406v182h202l45 217h-176v182h215l88 406h207l-88 -406h252l88 406h207l-88 -406h166v-182h-205l-45 -217h178v-182h-217l-86 -406h-207l86 406h-252l-86 -406h-207l86 406h-163zM436 588h252l45 217h-252z" />
<glyph unicode="$" horiz-adv-x="1150" d="M84 121l63 217q218 -125 394 -125q125 0 198.5 56.5t73.5 150.5q0 51 -24 89.5t-64 63t-92.5 44.5t-110 38t-115 38t-110 49.5t-92.5 68.5t-64 100t-24 138q0 167 103.5 278t279.5 139v172h162v-165q188 -11 356 -117l-64 -226q-181 123 -344 123q-110 0 -174.5 -50 t-64.5 -132q0 -47 24 -82t64 -57.5t92.5 -40.5t110 -35t115 -36.5t110 -50.5t92.5 -71t64 -103.5t24 -143.5q0 -177 -107.5 -294.5t-297.5 -148.5v-213h-162v205q-235 13 -416 121z" />
<glyph unicode="%" horiz-adv-x="1619" d="M104 1143q0 150 88.5 247t237.5 97q147 0 234.5 -95.5t87.5 -244.5q0 -150 -88.5 -247t-237.5 -97q-147 0 -234.5 95.5t-87.5 244.5zM244 0l915 1475h217l-915 -1475h-217zM293 1143q0 -94 33.5 -145.5t101.5 -51.5t101.5 51.5t33.5 145.5q0 196 -135 196t-135 -196z M868 328q0 150 88.5 247t237.5 97q147 0 234.5 -95.5t87.5 -244.5q0 -150 -88.5 -247t-237.5 -97q-147 0 -234.5 95.5t-87.5 244.5zM1057 328q0 -94 33.5 -145.5t101.5 -51.5t101.5 51.5t33.5 145.5q0 196 -135 196t-135 -196z" />
<glyph unicode="&#x26;" horiz-adv-x="1263" d="M51 346q0 94 39.5 169t103 126.5t166.5 108.5q-37 38 -59.5 66t-46 66.5t-34.5 81.5t-11 93q0 162 114 261t310 99q188 0 294.5 -89.5t106.5 -227.5q0 -55 -20 -104t-49 -84.5t-79 -72.5t-92.5 -61t-107.5 -57l252 -266q53 77 115 192l170 -96q-88 -157 -152 -238 l164 -172l-164 -166l-156 170q-101 -84 -202.5 -127t-229.5 -43q-199 0 -315.5 99.5t-116.5 271.5zM303 367q0 -89 58 -145t161 -56q140 0 266 117l-303 329q-89 -54 -135.5 -109.5t-46.5 -135.5zM444 1061q0 -37 18 -74.5t37 -61t66 -75.5q43 22 60 30.5t51 27.5t48 29.5 t35.5 29t30 34t16 36t7.5 42.5q0 63 -47 106.5t-131 43.5q-89 0 -140 -48t-51 -120z" />
<glyph unicode="'" horiz-adv-x="499" d="M145 1475h211l-16 -564h-178z" />
<glyph unicode="(" horiz-adv-x="755" d="M80 565q0 142 32 272.5t78.5 224.5t117 185.5t128 147t131.5 118.5l129 -127q-76 -71 -135.5 -147t-113.5 -176.5t-83.5 -227.5t-29.5 -270t29.5 -270t83.5 -227.5t113.5 -176.5t135.5 -147l-129 -127q-74 63 -131.5 118.5t-128 147t-117 185.5t-78.5 224.5t-32 272.5z " />
<glyph unicode=")" horiz-adv-x="755" d="M59 -256q76 71 135.5 147t114 176.5t84 227.5t29.5 270t-29.5 270t-84 227.5t-114 176.5t-135.5 147l129 127q61 -51 109 -97.5t108.5 -114.5t105 -142.5t84 -164.5t60.5 -199.5t21 -229.5t-21 -229.5t-60.5 -199.5t-84 -164.5t-105 -142.5t-108.5 -114.5t-109 -97.5z " />
<glyph unicode="*" horiz-adv-x="880" d="M70 1038v152l270 -14l-150 221l129 78l121 -242l121 242l129 -78l-149 -221l270 14v-152l-270 17l149 -224l-129 -75l-121 241l-121 -241l-129 75l150 224z" />
<glyph unicode="+" d="M86 420v205h397v419h205v-419h397v-205h-397v-420h-205v420h-397z" />
<glyph unicode="," horiz-adv-x="598" d="M68 -248q176 106 211 242q-63 3 -103.5 43t-40.5 102q0 63 42.5 105.5t111.5 42.5q83 0 132.5 -62t49.5 -164q0 -242 -287 -417z" />
<glyph unicode="-" horiz-adv-x="831" d="M113 547v182h606v-182h-606z" />
<glyph unicode="." horiz-adv-x="598" d="M141 131q0 67 44 111.5t114 44.5t114 -44.5t44 -111.5t-44 -111.5t-114 -44.5t-114 44.5t-44 111.5z" />
<glyph unicode="/" horiz-adv-x="1255" d="M49 -82l897 1557h260l-897 -1557h-260z" />
<glyph unicode="0" horiz-adv-x="1302" d="M96 733q0 184 42 330.5t117 241t176.5 144.5t223.5 50q120 0 220 -49t174 -142.5t115.5 -238.5t41.5 -328q0 -184 -42 -330.5t-117 -241t-176.5 -144.5t-223.5 -50q-120 0 -220 49t-174 142.5t-115.5 238.5t-41.5 328zM350 733q0 -279 81.5 -413t219.5 -134t219.5 134 t81.5 413q0 278 -81.5 412.5t-219.5 134.5t-219.5 -134.5t-81.5 -412.5z" />
<glyph unicode="1" horiz-adv-x="784" d="M57 1294l342 181h197v-1475h-250v1202l-213 -112z" />
<glyph unicode="2" horiz-adv-x="1159" d="M84 0v190q376 324 530 521t154 340q0 101 -62 162t-171 61q-195 0 -371 -209l-80 217q88 100 211.5 159.5t269.5 59.5q206 0 331.5 -118t125.5 -314q0 -188 -134 -384t-442 -472h617v-213h-979z" />
<glyph unicode="3" horiz-adv-x="1130" d="M43 78l66 217q103 -53 189.5 -81t182.5 -28q137 0 215 58.5t78 169.5q0 227 -368 227q-30 0 -144 -4v203q253 0 369.5 61.5t116.5 185.5q0 94 -61 143.5t-173 49.5q-162 0 -354 -125l-64 215q215 131 449 131q206 0 332.5 -96.5t126.5 -274.5q0 -261 -295 -364 q164 -38 247.5 -131.5t83.5 -235.5q0 -199 -153 -311.5t-404 -112.5q-239 0 -440 103z" />
<glyph unicode="4" horiz-adv-x="1257" d="M55 297v203l656 975h293v-963h217v-215h-217v-297h-250v297h-699zM307 512h447v662z" />
<glyph unicode="5" horiz-adv-x="1114" d="M51 78l66 221q102 -53 186 -81t182 -28q148 0 229 69t81 200q0 270 -355 270q-161 0 -334 -51l27 797h850v-222h-612l-13 -333q92 14 174 14q231 0 374 -124t143 -347q0 -232 -154 -360t-410 -128q-233 0 -434 103z" />
<glyph unicode="6" horiz-adv-x="1216" d="M96 725q0 190 46 338.5t129.5 243t195.5 143.5t248 49q203 0 354 -90l-68 -223q-83 45 -149 68.5t-143 23.5q-157 0 -250.5 -111.5t-110.5 -345.5q154 154 354 154q197 0 319 -132t122 -351q0 -121 -39.5 -220t-108 -163.5t-158 -99t-190.5 -34.5q-120 0 -220 49 t-174 142t-115.5 236t-41.5 323zM348 629q17 -227 96 -337t207 -110q111 0 179.5 76.5t68.5 212.5q0 137 -70 215t-188 78q-73 0 -143 -32.5t-150 -102.5z" />
<glyph unicode="7" horiz-adv-x="1060" d="M57 1247v228h957v-213q-282 -556 -543 -1262h-281q258 688 533 1247h-666z" />
<glyph unicode="8" horiz-adv-x="1202" d="M61 383q0 61 18 113.5t46 90.5t71 71.5t84 55.5t93 44q-116 57 -181 137t-65 203q0 180 136 290.5t351 110.5q207 0 334 -104.5t127 -274.5q0 -120 -65.5 -196.5t-192.5 -135.5q54 -23 94.5 -44t86.5 -55.5t75 -72.5t48.5 -93.5t19.5 -121.5q0 -195 -153 -310.5 t-398 -115.5q-241 0 -385 111.5t-144 296.5zM317 393q0 -106 77.5 -167.5t205.5 -61.5q126 0 205.5 61t79.5 162q0 43 -16.5 79.5t-41 62.5t-68.5 53t-83 45t-101 43q-65 -31 -106.5 -56t-79 -58t-55 -73t-17.5 -90zM375 1110q0 -82 57 -132.5t182 -100.5q110 52 161.5 103 t51.5 130q0 88 -61.5 141.5t-163.5 53.5q-103 0 -165 -53t-62 -142z" />
<glyph unicode="9" horiz-adv-x="1216" d="M74 983q0 161 68.5 280t179.5 177.5t247 58.5q120 0 220 -49t174 -141.5t115.5 -235.5t41.5 -323q0 -190 -46 -339t-129 -243.5t-195 -143.5t-248 -49q-203 0 -355 91l68 215q83 -45 150 -69t143 -24q328 0 360 465q-153 -153 -354 -153q-197 0 -318.5 132t-121.5 351z M317 997q0 -138 70 -216.5t188 -78.5q136 0 291 134q-17 227 -95 337.5t-206 110.5q-111 0 -179.5 -75.5t-68.5 -211.5z" />
<glyph unicode=":" horiz-adv-x="598" d="M141 131q0 67 44 111.5t114 44.5t114 -44.5t44 -111.5t-44 -111.5t-114 -44.5t-114 44.5t-44 111.5zM141 858q0 67 44 111.5t114 44.5t114 -44.5t44 -111.5t-44 -111.5t-114 -44.5t-114 44.5t-44 111.5z" />
<glyph unicode=";" horiz-adv-x="598" d="M68 -248q176 106 211 242q-63 3 -103.5 43t-40.5 102q0 63 42.5 105.5t111.5 42.5q83 0 132.5 -62t49.5 -164q0 -242 -287 -417zM135 858q0 67 44 111.5t114 44.5t114 -44.5t44 -111.5t-44 -111.5t-114 -44.5t-114 44.5t-44 111.5z" />
<glyph unicode="&#x3c;" d="M86 430v184l999 430v-200l-776 -322l776 -321v-201z" />
<glyph unicode="=" d="M86 221v185h999v-185h-999zM86 639v184h999v-184h-999z" />
<glyph unicode="&#x3e;" d="M86 0v201l776 321l-776 322v200l999 -430v-184z" />
<glyph unicode="?" horiz-adv-x="878" d="M82 1268v198q118 33 242 33q209 0 334.5 -95.5t125.5 -275.5q0 -71 -21.5 -132t-56 -104t-76 -81.5t-82.5 -73.5t-75.5 -69.5t-56 -79t-21.5 -94.5q0 -33 6 -56h-198q-13 61 -13 105q0 56 19 104.5t48.5 84.5t66 69t73 64.5t66 64t48.5 74.5t19 90q0 97 -71.5 148.5 t-188.5 51.5q-78 0 -188 -26zM156 121q0 62 42 103.5t109 41.5t109.5 -41.5t42.5 -103.5t-42.5 -104t-109.5 -42t-109 42t-42 104z" />
<glyph unicode="@" horiz-adv-x="1712" d="M102 528q0 229 100 411.5t282.5 286t414.5 103.5q209 0 370.5 -84.5t251 -240.5t89.5 -359q0 -118 -30.5 -211t-83.5 -150.5t-120 -87.5t-143 -30q-97 0 -158.5 46t-79.5 122q-70 -83 -134 -125.5t-148 -42.5q-109 0 -175.5 76.5t-66.5 230.5q0 74 16 144t51 134.5 t86.5 112.5t127.5 76.5t168 28.5q139 0 266 -60l-43 -403q-2 -16 -2 -35q0 -158 102 -158q87 0 144 91.5t57 240.5q0 243 -154 386t-395 143q-182 0 -326 -84.5t-222.5 -231.5t-78.5 -330q0 -110 30.5 -203t84.5 -159.5t128 -113t162 -69t185 -22.5q170 0 389 80l47 -154 q-215 -82 -434 -82q-159 0 -296.5 47.5t-240.5 136.5t-162 228t-59 311zM647 481q0 -159 103 -159q109 0 221 163l33 312q-57 22 -111 22q-56 0 -100.5 -23.5t-71 -59t-44 -82t-24 -89t-6.5 -84.5z" />
<glyph unicode="A" horiz-adv-x="1404" d="M51 0l504 1475h305l494 -1475h-271l-108 344h-555l-109 -344h-260zM485 547h426l-211 674z" />
<glyph unicode="B" horiz-adv-x="1351" d="M174 0v1475h504q242 0 374 -98.5t132 -291.5q0 -246 -219 -329q280 -78 280 -357q0 -190 -135.5 -294.5t-400.5 -104.5h-535zM428 203h281q144 0 213 53t69 170q0 116 -69 168.5t-213 52.5h-281v-444zM428 842h234q136 0 202 51.5t66 159.5q0 110 -66 161.5t-202 51.5 h-234v-424z" />
<glyph unicode="C" horiz-adv-x="1236" d="M96 721q0 186 49.5 334.5t139 245t212 147.5t269.5 51q223 0 389 -115l-65 -231q-88 61 -164 92t-166 31q-184 0 -295 -137.5t-111 -407.5t111 -404t299 -134q169 0 332 122l65 -211q-193 -129 -430 -129q-141 0 -257 48.5t-200.5 140.5t-131 234.5t-46.5 322.5z" />
<glyph unicode="D" horiz-adv-x="1452" d="M172 0v1475h490q316 0 504 -191.5t188 -544.5q0 -180 -51.5 -321.5t-144 -232t-218.5 -138t-278 -47.5h-490zM432 217h230q198 0 316 128t118 388t-118 388t-316 128h-230v-1032z" />
<glyph unicode="E" horiz-adv-x="1206" d="M174 0v1475h938v-226h-680v-389h594v-213h-594v-430h686v-217h-944z" />
<glyph unicode="F" horiz-adv-x="1118" d="M174 0v1475h889v-226h-631v-409h557v-213h-557v-627h-258z" />
<glyph unicode="G" horiz-adv-x="1398" d="M94 719q0 374 191 577t512 203q254 0 454 -139l-65 -232q-97 72 -189.5 109t-201.5 37q-99 0 -178.5 -32t-139.5 -97.5t-92.5 -172.5t-32.5 -249q0 -276 119.5 -407.5t329.5 -131.5q109 0 207 37v365h-279v200h522v-682q-221 -129 -481 -129q-316 0 -496 191t-180 553z " />
<glyph unicode="H" horiz-adv-x="1464" d="M174 0v1475h258v-605h600v605h258v-1475h-258v647h-600v-647h-258z" />
<glyph unicode="I" horiz-adv-x="634" d="M188 0v1475h258v-1475h-258z" />
<glyph unicode="J" horiz-adv-x="837" d="M47 0v223q85 -18 166 -18q123 0 169 58.5t46 187.5v1024h258v-1024q0 -241 -102.5 -352t-339.5 -111q-87 0 -197 12z" />
<glyph unicode="K" horiz-adv-x="1363" d="M174 0v1475h258v-670l551 670h305l-483 -549l526 -926h-287l-409 733l-203 -229v-504h-258z" />
<glyph unicode="L" horiz-adv-x="1097" d="M174 0v1475h258v-1250h617v-225h-875z" />
<glyph unicode="M" horiz-adv-x="1927" d="M147 0l123 1475h334l264 -832q74 -232 93 -338h4q30 133 98 342l272 828h328l117 -1475h-260l-47 795q-15 283 -15 356h-4q-13 -77 -100 -336l-279 -815h-233l-277 817q-85 250 -102 334h-4q0 -118 -13 -363l-49 -788h-250z" />
<glyph unicode="N" horiz-adv-x="1478" d="M174 0v1475h277l614 -981v981h240v-1475h-215l-676 1079v-1079h-240z" />
<glyph unicode="O" horiz-adv-x="1474" d="M96 733q0 184 48 330t134 241t204 145t259 50q140 0 256 -49.5t201.5 -143t132.5 -238.5t47 -327q0 -184 -48 -330t-134 -241t-204 -145t-259 -50q-140 0 -256 49.5t-201.5 143t-132.5 238.5t-47 327zM354 733q0 -275 104 -409t279 -134t279 134t104 409 q0 274 -104 408.5t-279 134.5t-279 -134.5t-104 -408.5z" />
<glyph unicode="P" horiz-adv-x="1298" d="M174 0v1475h531q251 0 388.5 -116t137.5 -339q0 -226 -142.5 -341.5t-402.5 -115.5h-256v-563h-256zM430 776h256q147 0 218 58t71 182q0 122 -71 179.5t-218 57.5h-256v-477z" />
<glyph unicode="Q" horiz-adv-x="1482" d="M96 733q0 184 48 330t134.5 241t204 145t258.5 50q139 0 255.5 -49.5t201.5 -143t132.5 -238.5t47.5 -327q0 -169 -41.5 -306.5t-116.5 -230.5t-177 -148.5t-226 -69.5v-2q0 -93 44.5 -129.5t139.5 -36.5q86 0 189 30v-217q-123 -24 -238 -24q-175 0 -261.5 74.5 t-86.5 246.5q0 43 2 66q-234 39 -372 230t-138 509zM354 733q0 -272 104 -406t279 -134q176 0 279.5 133.5t103.5 406.5q0 274 -103.5 408.5t-279.5 134.5q-175 0 -279 -134.5t-104 -408.5z" />
<glyph unicode="R" horiz-adv-x="1413" d="M174 0v1475h567q242 0 373 -107.5t131 -318.5q0 -319 -305 -406l367 -643h-287l-344 618h-248v-618h-254zM428 811h287q143 0 209.5 52t66.5 169t-66.5 169t-209.5 52h-287v-442z" />
<glyph unicode="S" horiz-adv-x="1191" d="M96 100l66 222q217 -132 399 -132q128 0 202.5 58t74.5 155q0 53 -24 93.5t-64.5 66.5t-93 47t-111 39.5t-116.5 39.5t-110.5 52t-93 71.5t-64.5 103.5t-24 143q0 201 138.5 320.5t363.5 119.5q230 0 416 -123l-66 -229q-185 129 -352 129q-111 0 -176.5 -52.5 t-65.5 -138.5q0 -50 24 -87.5t64.5 -61.5t93 -43t111 -37t116.5 -39t110.5 -52.5t93 -73.5t64.5 -107t24 -148q0 -212 -146 -336.5t-389 -124.5q-254 0 -465 125z" />
<glyph unicode="T" horiz-adv-x="1175" d="M49 1249v226h1077v-226h-409v-1249h-258v1249h-410z" />
<glyph unicode="U" horiz-adv-x="1409" d="M152 526v949h260v-938q0 -182 71 -260t226 -78t226 78t71 260v938h251v-938q0 -292 -138 -427t-419 -135q-279 0 -413.5 132t-134.5 419z" />
<glyph unicode="V" horiz-adv-x="1347" d="M51 1475h262l365 -1139l366 1139h252l-493 -1475h-266z" />
<glyph unicode="W" horiz-adv-x="1959" d="M59 1475h269l170 -707q56 -229 84 -403h4q58 284 90 407l188 703h244l184 -703q32 -123 90 -407h4q27 169 82 403l172 707h261l-379 -1475h-252l-193 725q-53 194 -66 251.5t-28 158.5h-8q-18 -127 -96 -414l-197 -721h-252z" />
<glyph unicode="X" horiz-adv-x="1357" d="M66 0l452 760l-428 715h285l307 -533l307 533h277l-430 -715l452 -760h-287l-329 578l-328 -578h-278z" />
<glyph unicode="Y" horiz-adv-x="1292" d="M33 1475h274l342 -617l344 617h264l-483 -867v-608h-258v608z" />
<glyph unicode="Z" horiz-adv-x="1245" d="M70 0v184l741 1065h-700v226h1038v-193l-741 -1065h747v-217h-1085z" />
<glyph unicode="[" horiz-adv-x="804" d="M154 -369v1844h587v-189h-333v-1466h333v-189h-587z" />
<glyph unicode="\" horiz-adv-x="1255" d="M49 1475h260l897 -1557h-260z" />
<glyph unicode="]" horiz-adv-x="804" d="M61 -180h334v1466h-334v189h588v-1844h-588v189z" />
<glyph unicode="^" d="M63 475l431 1000h184l430 -1000h-201l-321 776l-322 -776h-201z" />
<glyph unicode="_" horiz-adv-x="1007" d="M-8 -117h1024v-182h-1024v182z" />
<glyph unicode="`" horiz-adv-x="1024" d="M201 1475h284l193 -326h-197z" />
<glyph unicode="a" horiz-adv-x="1079" d="M80 299q0 350 473 350q77 0 156 -12v41q0 100 -47.5 144t-145.5 44q-137 0 -326 -92l-53 193q209 102 432 102q190 0 288.5 -85.5t98.5 -285.5v-460q0 -186 21 -238h-240q-19 30 -26 119q-141 -144 -320 -144q-139 0 -225 85t-86 239zM328 324q0 -77 39.5 -116.5 t109.5 -39.5q121 0 232 104v209q-86 13 -134 13q-132 0 -189.5 -41.5t-57.5 -128.5z" />
<glyph unicode="b" horiz-adv-x="1187" d="M141 0v1475h254v-568q137 162 320 162q178 0 285.5 -140.5t107.5 -391.5q0 -134 -32.5 -242t-89 -177t-132 -106t-162.5 -37q-179 0 -307 162v-137h-244zM395 291q107 -113 228 -113q107 0 169 84.5t62 253.5q0 168 -60.5 252t-162.5 84q-118 0 -236 -121v-440z" />
<glyph unicode="c" horiz-adv-x="933" d="M80 510q0 267 139 413t369 146q161 0 280 -80l-53 -205q-58 40 -108.5 61t-110.5 21q-119 0 -190.5 -87t-71.5 -261t72 -260t196 -86q119 0 219 78l53 -189q-135 -86 -313 -86q-219 0 -350 137.5t-131 397.5z" />
<glyph unicode="d" horiz-adv-x="1187" d="M80 504q0 266 118 415.5t300 149.5q169 0 295 -147v553h254v-1237q0 -198 20 -238h-246q-19 30 -26 137q-140 -162 -322 -162q-178 0 -285.5 139.5t-107.5 389.5zM334 514q0 -168 60.5 -252t162.5 -84q118 0 236 121v440q-107 113 -228 113q-107 0 -169 -84.5t-62 -253.5 z" />
<glyph unicode="e" horiz-adv-x="1112" d="M80 508q0 134 38.5 241.5t106.5 177t159.5 106t199.5 36.5q204 0 321 -129t117 -379q0 -55 -6 -110h-676q22 -285 285 -285q134 0 315 88l53 -182q-84 -45 -191 -71t-210 -26q-238 0 -375 137t-137 396zM336 614h448q-1 136 -57 203.5t-152 67.5q-99 0 -163 -70t-76 -201 z" />
<glyph unicode="f" horiz-adv-x="710" d="M41 848v196h176v109q0 168 78.5 251t253.5 83q55 0 123 -10v-195q-39 10 -76 10q-71 0 -98 -32.5t-27 -106.5v-109h201v-196h-201v-848h-254v848h-176z" />
<glyph unicode="g" horiz-adv-x="1200" d="M31 -190q0 77 51 138t151 97q-94 62 -94 162q0 106 119 190q-156 101 -156 289q0 119 64 207.5t169.5 132t237.5 43.5q219 0 345 -111q79 86 196 86q35 0 51 -2v-215q-12 2 -51 2q-46 0 -100 -14q18 -52 18 -115q0 -177 -134.5 -279t-338.5 -102q-83 0 -164 19 q-30 -33 -30 -76q0 -26 11 -42t34.5 -23t45.5 -9t58 -2h221q177 0 277 -70t100 -200q0 -117 -81 -202t-217 -127t-308 -42q-219 0 -347 69t-128 196zM274 -154q0 -66 71 -99.5t194 -33.5q143 0 230 43.5t87 120.5q0 111 -178 111h-272q-132 -52 -132 -142zM356 686 q0 -103 59.5 -153t155.5 -50q98 0 157.5 51t59.5 154t-58.5 153t-154.5 50q-98 0 -158.5 -51.5t-60.5 -153.5z" />
<glyph unicode="h" horiz-adv-x="1173" d="M141 0v1475h254v-570q167 164 377 164q279 0 279 -291v-778h-254v705q0 78 -32.5 110.5t-96.5 32.5q-134 0 -273 -125v-723h-254z" />
<glyph unicode="i" horiz-adv-x="561" d="M131 1335q0 62 41 102t109 40t108.5 -39.5t40.5 -102.5q0 -62 -40.5 -101.5t-108.5 -39.5t-109 39.5t-41 101.5zM154 0v1044h254v-1044h-254z" />
<glyph unicode="j" horiz-adv-x="561" d="M-47 -238q39 -10 76 -10q71 0 98 32.5t27 106.5v1153h254v-1153q0 -168 -78.5 -250.5t-253.5 -82.5q-55 0 -123 10v194zM131 1335q0 62 41 102t109 40t108.5 -39.5t40.5 -102.5q0 -62 -40.5 -101.5t-108.5 -39.5t-109 39.5t-41 101.5z" />
<glyph unicode="k" horiz-adv-x="1118" d="M141 0v1475h254v-854l365 423h284l-366 -380l399 -664h-268l-291 494l-123 -129v-365h-254z" />
<glyph unicode="l" horiz-adv-x="561" d="M154 0v1475h254v-1475h-254z" />
<glyph unicode="m" horiz-adv-x="1787" d="M141 0v1044h254v-139q160 164 363 164q205 0 256 -166q170 166 381 166q270 0 270 -291v-778h-254v705q0 79 -31 111t-92 32q-126 0 -258 -121v-727h-254v705q0 79 -31.5 111t-91.5 32q-130 0 -258 -125v-723h-254z" />
<glyph unicode="n" horiz-adv-x="1173" d="M141 0v1044h254v-139q167 164 377 164q279 0 279 -291v-778h-254v705q0 78 -32.5 110.5t-96.5 32.5q-134 0 -273 -125v-723h-254z" />
<glyph unicode="o" horiz-adv-x="1142" d="M80 518q0 137 39.5 244.5t108 173t156.5 99.5t191 34q101 0 188 -33t154.5 -98t106.5 -170.5t39 -241.5q0 -137 -39.5 -244.5t-108.5 -173t-157 -99.5t-191 -34q-101 0 -188 33t-154.5 98t-106 170.5t-38.5 241.5zM334 518q0 -182 65.5 -269t171.5 -87t172 87t66 269 t-66 269t-172 87t-171.5 -87t-65.5 -269z" />
<glyph unicode="p" horiz-adv-x="1187" d="M141 -430v1474h254v-137q137 162 320 162q178 0 285.5 -140.5t107.5 -391.5q0 -266 -118 -414t-300 -148q-168 0 -295 148v-553h-254zM395 291q107 -113 228 -113q107 0 169 84.5t62 253.5q0 168 -60.5 252t-162.5 84q-118 0 -236 -121v-440z" />
<glyph unicode="q" horiz-adv-x="1187" d="M80 504q0 266 118 415.5t300 149.5q177 0 305 -162v137h244v-1474h-254v567q-137 -162 -320 -162q-178 0 -285.5 139.5t-107.5 389.5zM334 514q0 -168 60.5 -252t162.5 -84q118 0 236 121v440q-107 113 -228 113q-107 0 -169 -84.5t-62 -253.5z" />
<glyph unicode="r" horiz-adv-x="796" d="M141 0v1044h254v-161q49 81 127 133.5t176 52.5q40 0 64 -6v-227q-32 4 -66 4q-52 0 -102 -15.5t-89 -40.5t-64 -45.5t-46 -42.5v-696h-254z" />
<glyph unicode="s" horiz-adv-x="948" d="M80 68l53 196q175 -98 309 -98q86 0 133.5 35.5t47.5 93.5q0 43 -27.5 72.5t-72 46t-98 31t-107 35t-98 50t-72 82.5t-27.5 127q0 152 106 241t285 89q177 0 324 -90l-54 -203q-140 96 -268 96q-69 0 -108 -30.5t-39 -79.5q0 -31 17 -54t46 -37.5t66.5 -25.5t79.5 -22.5 t83.5 -25.5t79 -36t66.5 -52t46 -77.5t17 -107.5q0 -162 -114.5 -255.5t-309.5 -93.5q-198 0 -364 93z" />
<glyph unicode="t" horiz-adv-x="763" d="M41 848v196h176v349h254v-349h227v-196h-227v-524q0 -78 22 -107t82 -29q49 0 123 21v-203q-95 -18 -192 -18q-162 0 -225.5 63.5t-63.5 233.5v563h-176z" />
<glyph unicode="u" horiz-adv-x="1173" d="M123 266v778h254v-712q0 -78 32.5 -111t96.5 -33q133 0 272 125v731h254v-1044h-254v139q-167 -164 -377 -164q-278 0 -278 291z" />
<glyph unicode="v" horiz-adv-x="1038" d="M18 1044h261l241 -745l246 745h252l-375 -1044h-260z" />
<glyph unicode="w" horiz-adv-x="1525" d="M25 1044h243l131 -479q39 -148 58 -270h4q27 156 57 264l139 485h222l135 -479q29 -105 57 -270h4q24 147 58 266l133 483h235l-299 -1044h-241l-132 469q-6 21 -15 54t-12 43.5t-9 32.5l-7.5 27.5t-5.5 22t-4.5 22t-3 21t-4 26t-4.5 30.5h-4q-10 -86 -64 -273l-137 -475 h-244z" />
<glyph unicode="x" horiz-adv-x="1052" d="M37 0l340 543l-314 501h267l200 -344l199 344h258l-313 -501l340 -543h-266l-228 385l-225 -385h-258z" />
<glyph unicode="y" horiz-adv-x="1038" d="M20 1044h261l241 -796l246 796h250l-344 -1019q-48 -142 -93 -230t-103.5 -142t-125.5 -74.5t-164 -20.5q-76 0 -120 8v209q64 -11 102 -11q45 0 77 10t63.5 38.5t59 79.5t58.5 133h-74z" />
<glyph unicode="z" horiz-adv-x="1005" d="M53 0v168l555 682h-520v194h838v-161l-555 -682h561v-201h-879z" />
<glyph unicode="{" horiz-adv-x="804" d="M63 459v188h48q87 0 120 35.5t33 112.5v344q0 172 98 254t312 82h67v-189h-67q-87 0 -120.5 -35t-33.5 -112v-344q0 -90 -38 -149.5t-120 -92.5q82 -33 120 -92.5t38 -149.5v-344q0 -77 33.5 -112t120.5 -35h67v-189h-67q-214 0 -312 82t-98 254v344q0 77 -33 112.5 t-120 35.5h-48z" />
<glyph unicode="|" horiz-adv-x="770" d="M260 -369v1844h250v-1844h-250z" />
<glyph unicode="}" horiz-adv-x="804" d="M61 -180h68q87 0 120.5 35t33.5 112v344q0 91 37.5 150t119.5 92q-82 33 -119.5 92t-37.5 150v344q0 77 -33.5 112t-120.5 35h-68v189h68q214 0 312 -82t98 -254v-344q0 -77 33 -112.5t120 -35.5h47v-188h-47q-87 0 -120 -35.5t-33 -112.5v-344q0 -172 -98 -254t-312 -82 h-68v189z" />
<glyph unicode="~" d="M51 571q48 41 126.5 70t164.5 29q87 0 250 -45t233 -45q125 0 224 82l71 -189q-48 -41 -126.5 -69.5t-164.5 -28.5q-87 0 -250 45t-233 45q-124 0 -223 -82z" />
<glyph unicode="&#xa1;" horiz-adv-x="671" d="M184 924q0 62 42.5 103.5t109.5 41.5t109 -41.5t42 -103.5t-42 -104t-109 -42t-109.5 42t-42.5 104zM188 -430l48 1036h198l47 -1036h-293z" />
<glyph unicode="&#xa2;" horiz-adv-x="983" d="M80 532q0 268 144 415t380 147q40 0 58 -2l59 254h135l-65 -281q54 -19 106 -51l-55 -201q-76 46 -97 55l-157 -678h30q117 0 232 78l53 -182q-142 -86 -323 -86h-35l-68 -293h-135l72 313q-157 44 -245.5 174.5t-88.5 337.5zM330 541q0 -231 133 -312l153 668h-6 q-128 0 -204 -88.5t-76 -267.5z" />
<glyph unicode="&#xa3;" horiz-adv-x="1003" d="M6 164q85 30 133.5 54t88.5 63.5t59 94.5t28 140l15 143h-275v168h291l33 303q21 193 112 281t289 88q94 0 127 -6v-197q-60 11 -102 11q-88 0 -127.5 -43t-48.5 -134l-33 -303h311v-168h-327l-15 -143q-10 -107 -44.5 -180t-96.5 -125q24 -4 84 -15t102 -16.5t78 -5.5 q118 0 217 59l53 -194q-46 -28 -118 -46t-146 -18q-72 0 -215 27t-203 27q-116 0 -217 -60z" />
<glyph unicode="&#xa4;" d="M123 201l162 164q-37 70 -37 157q0 88 37 158l-162 164l141 143l168 -170q70 31 152 31q81 0 151 -31l168 170l141 -143l-161 -164q37 -70 37 -158q0 -87 -37 -157l161 -164l-141 -144l-168 170q-67 -30 -151 -30t-152 30l-168 -170zM397 522q0 -81 54 -135.5t133 -54.5 q78 0 132 54.5t54 135.5t-54 136t-132 55t-132.5 -55t-54.5 -136z" />
<glyph unicode="&#xa5;" horiz-adv-x="1228" d="M33 1475h262l323 -617l326 617h252l-410 -758h281v-168h-326v-133h326v-168h-326v-248h-254v248h-325v168h325v133h-325v168h280z" />
<glyph unicode="&#xa6;" horiz-adv-x="770" d="M260 -369v799h250v-799h-250zM260 676v799h250v-799h-250z" />
<glyph unicode="&#xa7;" horiz-adv-x="1196" d="M117 -12l61 200q172 -100 332 -100q109 0 192 46.5t125 135.5q-113 13 -213 43t-193 83.5t-159 126t-105.5 177.5t-39.5 232q0 262 154.5 414.5t404.5 152.5q195 0 362 -92l-61 -209q-161 100 -311 100q-103 0 -180.5 -45t-116.5 -131q116 -14 217.5 -45t193 -85 t157 -126.5t104 -175.5t38.5 -227q0 -264 -161.5 -416.5t-421.5 -152.5q-207 0 -379 94zM332 932q1 -94 31.5 -170.5t80 -127t120.5 -88.5t143 -58.5t157 -32.5q-1 92 -31.5 168t-80.5 127.5t-120.5 89.5t-143 59t-156.5 33z" />
<glyph unicode="&#xa8;" horiz-adv-x="1024" d="M176 1282q0 56 36 92.5t93 36.5t93 -36.5t36 -92.5t-36 -92.5t-93 -36.5t-93 36.5t-36 92.5zM590 1282q0 56 36 92.5t93 36.5t93 -36.5t36 -92.5t-36 -92.5t-93 -36.5t-93 36.5t-36 92.5z" />
<glyph unicode="&#xa9;" horiz-adv-x="1716" d="M96 737q0 161 59.5 302.5t161 242.5t242.5 159t299 58t299 -58t242.5 -159t161 -242.5t59.5 -302.5t-59.5 -302.5t-161 -242.5t-242.5 -159t-299 -58t-299 58t-242.5 159t-161 242.5t-59.5 302.5zM227 737q0 -180 84 -326.5t228.5 -228.5t318.5 -82t318.5 82t228.5 228.5 t84 326.5t-84 326.5t-228.5 228.5t-318.5 82t-318.5 -82t-228.5 -228.5t-84 -326.5zM522 729q0 189 103 293t272 104q125 0 221 -59l-39 -156q-87 66 -168 66q-91 0 -146.5 -63t-55.5 -183q0 -122 56.5 -182t149.5 -60q83 0 168 60l37 -139q-107 -66 -237 -66 q-163 0 -262 100.5t-99 284.5z" />
<glyph unicode="&#xaa;" horiz-adv-x="679" d="M51 965q0 105 72 161t217 56q44 0 90 -6v18q0 58 -30 83.5t-89 25.5q-83 0 -198 -54l-35 131q139 62 270 62q122 0 187 -55t65 -181v-280q0 -116 12 -148h-163q-15 18 -17 62q-84 -78 -186 -78q-86 0 -140.5 53.5t-54.5 149.5zM221 981q0 -44 23 -66t63 -22q59 0 123 49 v127q-34 6 -68 6q-75 0 -108 -23t-33 -71z" />
<glyph unicode="&#xab;" horiz-adv-x="1087" d="M70 522l282 473h234l-271 -473l271 -473h-234zM479 522l283 473h233l-270 -473l270 -473h-233z" />
<glyph unicode="&#xac;" d="M86 561v205h999v-627h-206v422h-793z" />
<glyph unicode="&#xad;" horiz-adv-x="831" d="M113 547v182h606v-182h-606z" />
<glyph unicode="&#xae;" horiz-adv-x="1716" d="M96 737q0 161 59.5 302.5t161 242.5t242.5 159t299 58t299 -58t242.5 -159t161 -242.5t59.5 -302.5t-59.5 -302.5t-161 -242.5t-242.5 -159t-299 -58t-299 58t-242.5 159t-161 242.5t-59.5 302.5zM227 737q0 -180 84 -326.5t228.5 -228.5t318.5 -82t318.5 82t228.5 228.5 t84 326.5t-84 326.5t-228.5 228.5t-318.5 82t-318.5 -82t-228.5 -228.5t-84 -326.5zM565 358v750h314q140 0 217.5 -60.5t77.5 -175.5q0 -153 -144 -208l174 -306h-196l-158 281h-102v-281h-183zM748 768h114q66 0 97.5 23.5t31.5 72.5q0 51 -31.5 75t-97.5 24h-114v-195z " />
<glyph unicode="&#xaf;" horiz-adv-x="1024" d="M182 1167v174h660v-174h-660z" />
<glyph unicode="&#xb0;" horiz-adv-x="868" d="M98 1174q0 140 95 232.5t241 92.5t241 -92.5t95 -232.5t-95 -233t-241 -93t-241 93t-95 233zM248 1174q0 -82 53 -136.5t133 -54.5t133.5 54.5t53.5 136.5t-53.5 136t-133.5 54t-133 -54t-53 -136z" />
<glyph unicode="&#xb1;" d="M86 -49v184h999v-184h-999zM86 541v186h397v317h205v-317h397v-186h-397v-316h-205v316h-397z" />
<glyph unicode="&#xb2;" horiz-adv-x="735" d="M55 778v131q229 196 321.5 311t92.5 201q0 59 -34.5 94t-100.5 35q-117 0 -228 -125l-51 150q54 61 131.5 97t169.5 36q133 0 211 -73.5t78 -196.5q0 -119 -80 -235.5t-262 -276.5h369v-148h-617z" />
<glyph unicode="&#xb3;" horiz-adv-x="718" d="M29 823l43 150q66 -32 118.5 -49t112.5 -17q81 0 127.5 33.5t46.5 95.5q0 131 -219 131q-22 0 -92 -4v137q297 0 297 144q0 53 -38 82.5t-103 29.5q-90 0 -218 -75l-43 145q135 82 283 82q133 0 213 -60.5t80 -172.5q0 -160 -172 -226q194 -49 194 -223q0 -124 -96 -194 t-262 -70q-159 0 -272 61z" />
<glyph unicode="&#xb4;" horiz-adv-x="1024" d="M346 1149l193 326h284l-280 -326h-197z" />
<glyph unicode="&#xb5;" horiz-adv-x="1191" d="M141 -430v1474h254v-712q0 -78 32.5 -111t96.5 -33q134 0 273 125v731h254v-1044h-254v139q-73 -73 -170.5 -118.5t-196.5 -45.5q-15 0 -65 5q22 -196 22 -410h-246z" />
<glyph unicode="&#xb6;" horiz-adv-x="1091" d="M70 948q0 205 137.5 325t388.5 120v-887q-251 0 -388.5 119.5t-137.5 322.5zM397 -10q68 15 114.5 30t90.5 40t69.5 58t40.5 82.5t15 114.5v1078h215v-1090q0 -96 -20.5 -169.5t-58 -125.5t-100.5 -91t-136 -64.5t-176 -47.5z" />
<glyph unicode="&#xb7;" horiz-adv-x="598" d="M141 526q0 67 44 111.5t114 44.5t114 -44.5t44 -111.5t-44 -111t-114 -44t-114 44t-44 111z" />
<glyph unicode="&#xb8;" horiz-adv-x="1024" d="M266 -354l35 135q85 -47 164 -47q102 0 102 67q0 81 -155 113l28 98q316 -21 316 -217q0 -98 -72.5 -150.5t-198.5 -52.5q-121 0 -219 54z" />
<glyph unicode="&#xb9;" horiz-adv-x="507" d="M33 1579l213 113h141v-914h-176v723l-127 -67z" />
<glyph unicode="&#xba;" horiz-adv-x="722" d="M51 1100q0 166 89.5 254t224.5 88q134 0 221.5 -87t87.5 -251q0 -166 -89.5 -254t-224.5 -88q-134 0 -221.5 87t-87.5 251zM227 1100q0 -109 37 -159t98 -50t98.5 50t37.5 159t-37.5 159t-98.5 50t-98 -50t-37 -159z" />
<glyph unicode="&#xbb;" horiz-adv-x="1087" d="M90 49l270 473l-270 473h234l282 -473l-282 -473h-234zM500 49l270 473l-270 473h233l283 -473l-283 -473h-233z" />
<glyph unicode="&#xbc;" horiz-adv-x="1587" d="M33 1362l213 113h141v-914h-176v723l-127 -67zM178 0l928 1475h205l-928 -1475h-205zM827 180v139l404 594h199v-587h135v-146h-135v-180h-170v180h-433zM999 326h261v383z" />
<glyph unicode="&#xbd;" horiz-adv-x="1658" d="M33 1362l213 113h141v-914h-176v723l-127 -67zM162 0l928 1475h204l-927 -1475h-205zM981 0v131q229 196 321.5 311t92.5 201q0 59 -34.5 94t-100.5 35q-117 0 -228 -125l-51 150q54 61 131.5 97t169.5 36q133 0 211 -73.5t78 -197.5q0 -119 -80 -235.5t-262 -276.5h368 v-147h-616z" />
<glyph unicode="&#xbe;" horiz-adv-x="1736" d="M27 606l43 150q66 -32 118.5 -49t112.5 -17q81 0 127.5 33.5t46.5 95.5q0 131 -219 131q-22 0 -92 -4v137q297 0 297 144q0 53 -38.5 82.5t-103.5 29.5q-89 0 -217 -75l-43 145q135 82 283 82q133 0 213 -60.5t80 -173.5q0 -159 -172 -225q194 -49 194 -223 q0 -124 -96 -194t-262 -70q-159 0 -272 61zM328 0l927 1475h205l-928 -1475h-204zM977 180v139l403 594h199v-587h135v-146h-135v-180h-170v180h-432zM1149 326h260v383z" />
<glyph unicode="&#xbf;" horiz-adv-x="878" d="M94 -84q0 71 21.5 132t56 104.5t76 82t82.5 73t75.5 69.5t56 79.5t21.5 94.5q0 32 -6 55h199q12 -56 12 -104q0 -56 -19 -104.5t-48.5 -84.5t-66 -69t-73 -64.5t-66 -64t-48.5 -74.5t-19 -90q0 -97 71.5 -149t188.5 -52q75 0 189 27v-199q-118 -33 -242 -33 q-209 0 -335 96t-126 275zM420 924q0 62 42 103.5t109 41.5t109.5 -41.5t42.5 -103.5t-42.5 -104t-109.5 -42t-109 42t-42 104z" />
<glyph unicode="&#xc0;" horiz-adv-x="1404" d="M51 0l504 1475h305l494 -1475h-271l-108 344h-555l-109 -344h-260zM391 1862h287l192 -285h-200zM485 547h426l-211 674z" />
<glyph unicode="&#xc1;" horiz-adv-x="1404" d="M51 0l504 1475h305l494 -1475h-271l-108 344h-555l-109 -344h-260zM485 547h426l-211 674zM535 1577l192 285h287l-279 -285h-200z" />
<glyph unicode="&#xc2;" horiz-adv-x="1404" d="M51 0l504 1475h305l494 -1475h-271l-108 344h-555l-109 -344h-260zM344 1577l258 285h201l258 -285h-189l-170 115l-170 -115h-188zM485 547h426l-211 674z" />
<glyph unicode="&#xc3;" horiz-adv-x="1404" d="M51 0l504 1475h305l494 -1475h-271l-108 344h-555l-109 -344h-260zM344 1577q0 139 55.5 201.5t145.5 62.5q55 0 114.5 -23.5t109.5 -47t81 -23.5q59 0 59 82h152q0 -139 -55.5 -201.5t-145.5 -62.5q-55 0 -114.5 23.5t-109.5 47t-81 23.5q-59 0 -59 -82h-152zM485 547 h426l-211 674z" />
<glyph unicode="&#xc4;" horiz-adv-x="1404" d="M51 0l504 1475h305l494 -1475h-271l-108 344h-555l-109 -344h-260zM367 1704q0 56 36 92.5t93 36.5t93 -36.5t36 -92.5t-36 -92.5t-93 -36.5t-93 36.5t-36 92.5zM485 547h426l-211 674zM780 1704q0 56 36 92.5t93 36.5t93 -36.5t36 -92.5t-36 -92.5t-93 -36.5t-93 36.5 t-36 92.5z" />
<glyph unicode="&#xc5;" horiz-adv-x="1404" d="M51 0l481 1411q-38 50 -38 117q0 84 60.5 141t152.5 57t152.5 -57t60.5 -141q0 -66 -39 -117l473 -1411h-271l-108 344h-555l-109 -344h-260zM485 547h426l-211 674zM614 1528q0 -38 26 -64t67 -26q40 0 66 26t26 64t-26 64t-66 26q-41 0 -67 -26t-26 -64z" />
<glyph unicode="&#xc6;" horiz-adv-x="1929" d="M39 0l784 1475h1012v-226h-621v-389h535v-213h-535v-430h627v-217h-885v344h-464l-175 -344h-278zM596 547h360v706z" />
<glyph unicode="&#xc7;" horiz-adv-x="1236" d="M96 721q0 186 49.5 334.5t139 245t212 147.5t269.5 51q223 0 389 -115l-65 -231q-88 61 -164 92t-166 31q-184 0 -295 -137.5t-111 -407.5t111 -404t299 -134q169 0 332 122l65 -211q-163 -107 -360 -124q139 -53 139 -185q0 -98 -72.5 -150.5t-197.5 -52.5 q-121 0 -219 54l34 135q85 -47 164 -47q103 0 103 67q0 81 -156 113l20 70q-240 36 -380 226t-140 511z" />
<glyph unicode="&#xc8;" horiz-adv-x="1206" d="M174 0v1475h938v-226h-680v-389h594v-213h-594v-430h686v-217h-944zM334 1862h287l192 -285h-201z" />
<glyph unicode="&#xc9;" horiz-adv-x="1206" d="M174 0v1475h938v-226h-680v-389h594v-213h-594v-430h686v-217h-944zM477 1577l193 285h286l-278 -285h-201z" />
<glyph unicode="&#xca;" horiz-adv-x="1206" d="M174 0v1475h938v-226h-680v-389h594v-213h-594v-430h686v-217h-944zM287 1577l258 285h200l259 -285h-189l-170 115l-170 -115h-188z" />
<glyph unicode="&#xcb;" horiz-adv-x="1206" d="M174 0v1475h938v-226h-680v-389h594v-213h-594v-430h686v-217h-944zM309 1704q0 56 36 92.5t93 36.5t93 -36.5t36 -92.5t-36 -92.5t-93 -36.5t-93 36.5t-36 92.5zM723 1704q0 56 36 92.5t93 36.5t93 -36.5t36 -92.5t-36 -92.5t-93 -36.5t-93 36.5t-36 92.5z" />
<glyph unicode="&#xcc;" horiz-adv-x="634" d="M6 1862h287l192 -285h-200zM188 0v1475h258v-1475h-258z" />
<glyph unicode="&#xcd;" horiz-adv-x="634" d="M150 1577l192 285h287l-279 -285h-200zM188 0v1475h258v-1475h-258z" />
<glyph unicode="&#xce;" horiz-adv-x="634" d="M-41 1577l258 285h201l258 -285h-189l-170 115l-170 -115h-188zM188 0v1475h258v-1475h-258z" />
<glyph unicode="&#xcf;" horiz-adv-x="634" d="M-18 1704q0 56 36 92.5t93 36.5t93 -36.5t36 -92.5t-36 -92.5t-93 -36.5t-93 36.5t-36 92.5zM188 0v1475h258v-1475h-258zM395 1704q0 56 36 92.5t93 36.5t93 -36.5t36 -92.5t-36 -92.5t-93 -36.5t-93 36.5t-36 92.5z" />
<glyph unicode="&#xd0;" horiz-adv-x="1452" d="M25 668v176h147v631h490q316 0 504 -191.5t188 -544.5q0 -180 -51.5 -321.5t-144 -232t-218.5 -138t-278 -47.5h-490v668h-147zM432 217h230q198 0 316 128t118 388t-118 388t-316 128h-230v-405h328v-176h-328v-451z" />
<glyph unicode="&#xd1;" horiz-adv-x="1478" d="M174 0v1475h277l614 -981v981h240v-1475h-215l-676 1079v-1079h-240zM381 1577q0 139 55.5 201.5t145.5 62.5q55 0 114.5 -23.5t109.5 -47t81 -23.5q59 0 59 82h152q0 -139 -55.5 -201.5t-145.5 -62.5q-55 0 -114.5 23.5t-109.5 47t-81 23.5q-60 0 -60 -82h-151z" />
<glyph unicode="&#xd2;" horiz-adv-x="1474" d="M96 733q0 184 48 330t134 241t204 145t259 50q140 0 256 -49.5t201.5 -143t132.5 -238.5t47 -327q0 -184 -48 -330t-134 -241t-204 -145t-259 -50q-140 0 -256 49.5t-201.5 143t-132.5 238.5t-47 327zM354 733q0 -275 104 -409t279 -134t279 134t104 409 q0 274 -104 408.5t-279 134.5t-279 -134.5t-104 -408.5zM426 1862h287l192 -285h-200z" />
<glyph unicode="&#xd3;" horiz-adv-x="1474" d="M96 733q0 184 48 330t134 241t204 145t259 50q140 0 256 -49.5t201.5 -143t132.5 -238.5t47 -327q0 -184 -48 -330t-134 -241t-204 -145t-259 -50q-140 0 -256 49.5t-201.5 143t-132.5 238.5t-47 327zM354 733q0 -275 104 -409t279 -134t279 134t104 409 q0 274 -104 408.5t-279 134.5t-279 -134.5t-104 -408.5zM569 1577l193 285h287l-279 -285h-201z" />
<glyph unicode="&#xd4;" horiz-adv-x="1474" d="M96 733q0 184 48 330t134 241t204 145t259 50q140 0 256 -49.5t201.5 -143t132.5 -238.5t47 -327q0 -184 -48 -330t-134 -241t-204 -145t-259 -50q-140 0 -256 49.5t-201.5 143t-132.5 238.5t-47 327zM354 733q0 -275 104 -409t279 -134t279 134t104 409 q0 274 -104 408.5t-279 134.5t-279 -134.5t-104 -408.5zM379 1577l258 285h201l258 -285h-189l-170 115l-170 -115h-188z" />
<glyph unicode="&#xd5;" horiz-adv-x="1474" d="M96 733q0 184 48 330t134 241t204 145t259 50q140 0 256 -49.5t201.5 -143t132.5 -238.5t47 -327q0 -184 -48 -330t-134 -241t-204 -145t-259 -50q-140 0 -256 49.5t-201.5 143t-132.5 238.5t-47 327zM354 733q0 -275 104 -409t279 -134t279 134t104 409 q0 274 -104 408.5t-279 134.5t-279 -134.5t-104 -408.5zM375 1577q0 139 55 201.5t145 62.5q55 0 115 -23.5t110 -47t81 -23.5q59 0 59 82h152q0 -139 -55.5 -201.5t-145.5 -62.5q-55 0 -114.5 23.5t-109.5 47t-81 23.5q-60 0 -60 -82h-151z" />
<glyph unicode="&#xd6;" horiz-adv-x="1474" d="M96 733q0 184 48 330t134 241t204 145t259 50q140 0 256 -49.5t201.5 -143t132.5 -238.5t47 -327q0 -184 -48 -330t-134 -241t-204 -145t-259 -50q-140 0 -256 49.5t-201.5 143t-132.5 238.5t-47 327zM354 733q0 -275 104 -409t279 -134t279 134t104 409 q0 274 -104 408.5t-279 134.5t-279 -134.5t-104 -408.5zM401 1704q0 56 36 92.5t93 36.5t93 -36.5t36 -92.5t-36 -92.5t-93 -36.5t-93 36.5t-36 92.5zM815 1704q0 56 36 92.5t93 36.5t93 -36.5t36 -92.5t-36 -92.5t-93 -36.5t-93 36.5t-36 92.5z" />
<glyph unicode="&#xd7;" d="M123 199l319 321l-319 322l141 143l320 -321l319 321l141 -143l-319 -322l319 -321l-141 -144l-319 322l-320 -322z" />
<glyph unicode="&#xd8;" horiz-adv-x="1474" d="M53 80l156 178q-113 190 -113 475q0 184 48 330t134 241t204 145t259 50q259 0 424 -160l142 160l114 -104l-157 -178q114 -192 114 -478q0 -183 -48 -329t-134 -240.5t-204 -144.5t-259 -50q-258 0 -426 160l-139 -160zM346 731q0 -164 37 -276l627 708 q-106 121 -273 121q-178 0 -284.5 -136.5t-106.5 -416.5zM461 307q102 -125 274 -125q86 0 156.5 32t124 97t83 172t29.5 248q0 167 -41 285z" />
<glyph unicode="&#xd9;" horiz-adv-x="1409" d="M152 526v949h260v-938q0 -182 71 -260t226 -78t226 78t71 260v938h251v-938q0 -292 -138 -427t-419 -135q-279 0 -413.5 132t-134.5 419zM393 1862h287l192 -285h-200z" />
<glyph unicode="&#xda;" horiz-adv-x="1409" d="M152 526v949h260v-938q0 -182 71 -260t226 -78t226 78t71 260v938h251v-938q0 -292 -138 -427t-419 -135q-279 0 -413.5 132t-134.5 419zM537 1577l192 285h287l-279 -285h-200z" />
<glyph unicode="&#xdb;" horiz-adv-x="1409" d="M152 526v949h260v-938q0 -182 71 -260t226 -78t226 78t71 260v938h251v-938q0 -292 -138 -427t-419 -135q-279 0 -413.5 132t-134.5 419zM346 1577l258 285h201l258 -285h-189l-169 115l-170 -115h-189z" />
<glyph unicode="&#xdc;" horiz-adv-x="1409" d="M152 526v949h260v-938q0 -182 71 -260t226 -78t226 78t71 260v938h251v-938q0 -292 -138 -427t-419 -135q-279 0 -413.5 132t-134.5 419zM369 1704q0 56 36 92.5t93 36.5t93 -36.5t36 -92.5t-36 -92.5t-93 -36.5t-93 36.5t-36 92.5zM782 1704q0 56 36 92.5t93 36.5 t93 -36.5t36 -92.5t-36 -92.5t-93 -36.5t-93 36.5t-36 92.5z" />
<glyph unicode="&#xdd;" horiz-adv-x="1292" d="M33 1475h274l342 -617l344 617h264l-483 -867v-608h-258v608zM481 1577l193 285h287l-279 -285h-201z" />
<glyph unicode="&#xde;" horiz-adv-x="1296" d="M174 0v1475h256v-205h275q251 0 388.5 -116t137.5 -339q0 -226 -142.5 -341.5t-402.5 -115.5h-256v-358h-256zM430 571h256q147 0 218 58t71 182q0 122 -71 180t-218 58h-256v-478z" />
<glyph unicode="&#xdf;" horiz-adv-x="1257" d="M141 0v1032q0 152 63 259t169.5 157.5t247.5 50.5q196 0 317 -98t121 -283q0 -232 -215 -321q334 -97 334 -412q0 -196 -117.5 -303t-315.5 -107q-124 0 -219 37l37 191q75 -35 156 -35q96 0 150.5 55.5t54.5 169.5q0 153 -96 226t-259 73v193q112 0 179 52.5t67 164.5 q0 101 -54.5 149.5t-142.5 48.5q-101 0 -162 -64t-61 -204v-1032h-254z" />
<glyph unicode="&#xe0;" horiz-adv-x="1079" d="M80 299q0 350 473 350q77 0 156 -12v41q0 100 -47.5 144t-145.5 44q-137 0 -326 -92l-53 193q209 102 432 102q190 0 288.5 -85.5t98.5 -285.5v-460q0 -186 21 -238h-240q-19 30 -26 119q-141 -144 -320 -144q-139 0 -225 85t-86 239zM244 1475h284l193 -326h-197z M328 324q0 -77 39.5 -116.5t109.5 -39.5q121 0 232 104v209q-86 13 -134 13q-132 0 -189.5 -41.5t-57.5 -128.5z" />
<glyph unicode="&#xe1;" horiz-adv-x="1079" d="M80 299q0 350 473 350q77 0 156 -12v41q0 100 -47.5 144t-145.5 44q-137 0 -326 -92l-53 193q209 102 432 102q190 0 288.5 -85.5t98.5 -285.5v-460q0 -186 21 -238h-240q-19 30 -26 119q-141 -144 -320 -144q-139 0 -225 85t-86 239zM328 324q0 -77 39.5 -116.5 t109.5 -39.5q121 0 232 104v209q-86 13 -134 13q-132 0 -189.5 -41.5t-57.5 -128.5zM389 1149l193 326h284l-280 -326h-197z" />
<glyph unicode="&#xe2;" horiz-adv-x="1079" d="M80 299q0 350 473 350q77 0 156 -12v41q0 100 -47.5 144t-145.5 44q-137 0 -326 -92l-53 193q209 102 432 102q190 0 288.5 -85.5t98.5 -285.5v-460q0 -186 21 -238h-240q-19 30 -26 119q-141 -144 -320 -144q-139 0 -225 85t-86 239zM197 1149l260 326h196l260 -326 h-186l-172 156l-172 -156h-186zM328 324q0 -77 39.5 -116.5t109.5 -39.5q121 0 232 104v209q-86 13 -134 13q-132 0 -189.5 -41.5t-57.5 -128.5z" />
<glyph unicode="&#xe3;" horiz-adv-x="1079" d="M80 299q0 350 473 350q77 0 156 -12v41q0 100 -47.5 144t-145.5 44q-137 0 -326 -92l-53 193q209 102 432 102q190 0 288.5 -85.5t98.5 -285.5v-460q0 -186 21 -238h-240q-19 30 -26 119q-141 -144 -320 -144q-139 0 -225 85t-86 239zM197 1161q0 141 56 207t144 66 q56 0 115.5 -28t108.5 -55.5t79 -27.5q64 0 64 98h149q0 -141 -56 -206.5t-144 -65.5q-44 0 -91.5 17.5t-80.5 38t-69.5 38t-61.5 17.5q-30 0 -47 -25.5t-17 -73.5h-149zM328 324q0 -77 39.5 -116.5t109.5 -39.5q121 0 232 104v209q-86 13 -134 13q-132 0 -189.5 -41.5 t-57.5 -128.5z" />
<glyph unicode="&#xe4;" horiz-adv-x="1079" d="M80 299q0 350 473 350q77 0 156 -12v41q0 100 -47.5 144t-145.5 44q-137 0 -326 -92l-53 193q209 102 432 102q190 0 288.5 -85.5t98.5 -285.5v-460q0 -186 21 -238h-240q-19 30 -26 119q-141 -144 -320 -144q-139 0 -225 85t-86 239zM219 1282q0 56 36 92.5t93 36.5 t93 -36.5t36 -92.5t-36 -92.5t-93 -36.5t-93 36.5t-36 92.5zM328 324q0 -77 39.5 -116.5t109.5 -39.5q121 0 232 104v209q-86 13 -134 13q-132 0 -189.5 -41.5t-57.5 -128.5zM633 1282q0 56 36 92.5t93 36.5t93 -36.5t36 -92.5t-36 -92.5t-93 -36.5t-93 36.5t-36 92.5z" />
<glyph unicode="&#xe5;" horiz-adv-x="1079" d="M80 299q0 350 473 350q77 0 156 -12v41q0 100 -47.5 144t-145.5 44q-137 0 -326 -92l-53 193q209 102 432 102q190 0 288.5 -85.5t98.5 -285.5v-460q0 -186 21 -238h-240q-19 30 -26 119q-141 -144 -320 -144q-139 0 -225 85t-86 239zM328 324q0 -77 39.5 -116.5 t109.5 -39.5q121 0 232 104v209q-86 13 -134 13q-132 0 -189.5 -41.5t-57.5 -128.5zM354 1341q0 84 57 141.5t144 57.5t144 -57.5t57 -141.5t-57 -141t-144 -57t-144 57t-57 141zM465 1341q0 -38 25 -64t65 -26t65 26t25 64t-25 64.5t-65 26.5t-65 -26.5t-25 -64.5z" />
<glyph unicode="&#xe6;" horiz-adv-x="1730" d="M80 299q0 169 117.5 259.5t355.5 90.5q77 0 156 -12v41q0 100 -47.5 144t-145.5 44q-137 0 -326 -92l-53 193q209 102 432 102q219 0 310 -108q129 108 323 108q204 0 321 -129t117 -379q0 -55 -6 -110h-676q22 -285 285 -285q135 0 316 88l53 -182q-84 -45 -191.5 -71 t-210.5 -26q-276 0 -411 179q-78 -79 -181 -129t-215 -50q-144 0 -233.5 85t-89.5 239zM328 324q0 -77 40 -116.5t109 -39.5q125 0 252 121q-28 86 -31 194q-83 11 -125 11q-131 0 -188 -42t-57 -128zM954 614h449q-1 136 -57 203.5t-152 67.5q-99 0 -163.5 -70t-76.5 -201z " />
<glyph unicode="&#xe7;" horiz-adv-x="933" d="M80 510q0 267 139 413t369 146q161 0 280 -80l-53 -205q-58 40 -108.5 61t-110.5 21q-119 0 -190.5 -87t-71.5 -261t72 -260t196 -86q119 0 219 78l53 -189q-98 -64 -233 -79q145 -53 145 -187q0 -98 -72.5 -150.5t-197.5 -52.5q-121 0 -219 54l35 135q85 -47 164 -47 q102 0 102 67q0 81 -156 113l21 70q-177 29 -280 163.5t-103 362.5z" />
<glyph unicode="&#xe8;" horiz-adv-x="1112" d="M80 508q0 134 38.5 241.5t106.5 177t159.5 106t199.5 36.5q204 0 321 -129t117 -379q0 -55 -6 -110h-676q22 -285 285 -285q134 0 315 88l53 -182q-84 -45 -191 -71t-210 -26q-238 0 -375 137t-137 396zM262 1475h285l192 -326h-196zM336 614h448q-1 136 -57 203.5 t-152 67.5q-99 0 -163 -70t-76 -201z" />
<glyph unicode="&#xe9;" horiz-adv-x="1112" d="M80 508q0 134 38.5 241.5t106.5 177t159.5 106t199.5 36.5q204 0 321 -129t117 -379q0 -55 -6 -110h-676q22 -285 285 -285q134 0 315 88l53 -182q-84 -45 -191 -71t-210 -26q-238 0 -375 137t-137 396zM336 614h448q-1 136 -57 203.5t-152 67.5q-99 0 -163 -70t-76 -201 zM387 1149l193 326h284l-280 -326h-197z" />
<glyph unicode="&#xea;" horiz-adv-x="1112" d="M80 508q0 134 38.5 241.5t106.5 177t159.5 106t199.5 36.5q204 0 321 -129t117 -379q0 -55 -6 -110h-676q22 -285 285 -285q134 0 315 88l53 -182q-84 -45 -191 -71t-210 -26q-238 0 -375 137t-137 396zM205 1149l260 326h197l260 -326h-187l-172 156l-172 -156h-186z M336 614h448q-1 136 -57 203.5t-152 67.5q-99 0 -163 -70t-76 -201z" />
<glyph unicode="&#xeb;" horiz-adv-x="1112" d="M80 508q0 134 38.5 241.5t106.5 177t159.5 106t199.5 36.5q204 0 321 -129t117 -379q0 -55 -6 -110h-676q22 -285 285 -285q134 0 315 88l53 -182q-84 -45 -191 -71t-210 -26q-238 0 -375 137t-137 396zM227 1282q0 56 36 92.5t93 36.5t93 -36.5t36 -92.5t-36 -92.5 t-93 -36.5t-93 36.5t-36 92.5zM336 614h448q-1 136 -57 203.5t-152 67.5q-99 0 -163 -70t-76 -201zM641 1282q0 56 36 92.5t93 36.5t93 -36.5t36 -92.5t-36 -92.5t-93 -36.5t-93 36.5t-36 92.5z" />
<glyph unicode="&#xec;" horiz-adv-x="561" d="M-31 1475h285l192 -326h-196zM154 0v1044h254v-1044h-254z" />
<glyph unicode="&#xed;" horiz-adv-x="561" d="M115 1149l192 326h285l-281 -326h-196zM154 0v1044h254v-1044h-254z" />
<glyph unicode="&#xee;" horiz-adv-x="561" d="M-78 1149l260 326h197l260 -326h-186l-172 156l-172 -156h-187zM154 0v1044h254v-1044h-254z" />
<glyph unicode="&#xef;" horiz-adv-x="561" d="M-55 1282q0 56 36 92.5t93 36.5t93 -36.5t36 -92.5t-36 -92.5t-93 -36.5t-93 36.5t-36 92.5zM154 0v1044h254v-1044h-254zM358 1282q0 56 36 92.5t93 36.5t93 -36.5t36 -92.5t-36 -92.5t-93 -36.5t-93 36.5t-36 92.5z" />
<glyph unicode="&#xf0;" horiz-adv-x="1142" d="M80 489q0 125 35 224.5t95.5 162t139 95.5t168.5 33q154 0 252 -103q-42 131 -125 254l-143 -80l-70 129l119 68l-105 106l146 142l24.5 -21t26 -23t24.5 -22t26.5 -24.5t24 -24.5t25.5 -27l158 88l72 -129l-133 -75q98 -132 160.5 -323t62.5 -388q0 -278 -131 -427 t-363 -149q-144 0 -252.5 55.5t-172.5 173.5t-64 285zM334 485q0 -164 65.5 -241.5t171.5 -77.5q107 0 172.5 77.5t65.5 241.5t-65.5 242t-172.5 78q-106 0 -171.5 -78t-65.5 -242z" />
<glyph unicode="&#xf1;" horiz-adv-x="1173" d="M141 0v1044h254v-139q167 164 377 164q279 0 279 -291v-778h-254v705q0 78 -32.5 110.5t-96.5 32.5q-134 0 -273 -125v-723h-254zM238 1161q0 141 56 207t144 66q56 0 115.5 -28t108.5 -55.5t79 -27.5q64 0 64 98h149q0 -141 -56 -206.5t-144 -65.5q-44 0 -91.5 17.5 t-80.5 38t-69.5 38t-61.5 17.5q-30 0 -47 -25.5t-17 -73.5h-149z" />
<glyph unicode="&#xf2;" horiz-adv-x="1142" d="M80 518q0 137 39.5 244.5t108 173t156.5 99.5t191 34q101 0 188 -33t154.5 -98t106.5 -170.5t39 -241.5q0 -137 -39.5 -244.5t-108.5 -173t-157 -99.5t-191 -34q-101 0 -188 33t-154.5 98t-106 170.5t-38.5 241.5zM260 1475h285l192 -326h-196zM334 518q0 -182 65.5 -269 t171.5 -87t172 87t66 269t-66 269t-172 87t-171.5 -87t-65.5 -269z" />
<glyph unicode="&#xf3;" horiz-adv-x="1142" d="M80 518q0 137 39.5 244.5t108 173t156.5 99.5t191 34q101 0 188 -33t154.5 -98t106.5 -170.5t39 -241.5q0 -137 -39.5 -244.5t-108.5 -173t-157 -99.5t-191 -34q-101 0 -188 33t-154.5 98t-106 170.5t-38.5 241.5zM334 518q0 -182 65.5 -269t171.5 -87t172 87t66 269 t-66 269t-172 87t-171.5 -87t-65.5 -269zM406 1149l192 326h285l-281 -326h-196z" />
<glyph unicode="&#xf4;" horiz-adv-x="1142" d="M80 518q0 137 39.5 244.5t108 173t156.5 99.5t191 34q101 0 188 -33t154.5 -98t106.5 -170.5t39 -241.5q0 -137 -39.5 -244.5t-108.5 -173t-157 -99.5t-191 -34q-101 0 -188 33t-154.5 98t-106 170.5t-38.5 241.5zM213 1149l260 326h197l260 -326h-187l-172 156 l-172 -156h-186zM334 518q0 -182 65.5 -269t171.5 -87t172 87t66 269t-66 269t-172 87t-171.5 -87t-65.5 -269z" />
<glyph unicode="&#xf5;" horiz-adv-x="1142" d="M80 518q0 137 39.5 244.5t108 173t156.5 99.5t191 34q101 0 188 -33t154.5 -98t106.5 -170.5t39 -241.5q0 -137 -39.5 -244.5t-108.5 -173t-157 -99.5t-191 -34q-101 0 -188 33t-154.5 98t-106 170.5t-38.5 241.5zM213 1161q0 141 56.5 207t144.5 66q56 0 115.5 -28 t108.5 -55.5t79 -27.5q63 0 63 98h150q0 -141 -56.5 -206.5t-144.5 -65.5q-44 0 -91.5 17.5t-80.5 38t-69.5 38t-61.5 17.5q-30 0 -47 -25.5t-17 -73.5h-149zM334 518q0 -182 65.5 -269t171.5 -87t172 87t66 269t-66 269t-172 87t-171.5 -87t-65.5 -269z" />
<glyph unicode="&#xf6;" horiz-adv-x="1142" d="M80 518q0 137 39.5 244.5t108 173t156.5 99.5t191 34q101 0 188 -33t154.5 -98t106.5 -170.5t39 -241.5q0 -137 -39.5 -244.5t-108.5 -173t-157 -99.5t-191 -34q-101 0 -188 33t-154.5 98t-106 170.5t-38.5 241.5zM236 1282q0 56 36 92.5t93 36.5t93 -36.5t36 -92.5 t-36 -92.5t-93 -36.5t-93 36.5t-36 92.5zM334 518q0 -182 65.5 -269t171.5 -87t172 87t66 269t-66 269t-172 87t-171.5 -87t-65.5 -269zM649 1282q0 56 36 92.5t93 36.5t93 -36.5t36 -92.5t-36 -92.5t-93 -36.5t-93 36.5t-36 92.5z" />
<glyph unicode="&#xf7;" d="M86 420v205h999v-205h-999zM442 129q0 60 39 97.5t103 37.5q65 0 104 -37t39 -98q0 -59 -39 -96t-104 -37q-64 0 -103 37t-39 96zM442 915q0 59 39 96.5t103 37.5q65 0 104 -37.5t39 -96.5q0 -61 -39 -98t-104 -37q-64 0 -103 37.5t-39 97.5z" />
<glyph unicode="&#xf8;" horiz-adv-x="1142" d="M47 27l125 141q-92 139 -92 350q0 137 39.5 244.5t108 173t156.5 99.5t191 34q181 0 306 -98l116 131l99 -84l-127 -144q94 -137 94 -348q0 -137 -39.5 -244.5t-108.5 -173t-157 -99.5t-191 -34q-185 0 -307 99l-115 -131zM322 518q0 -90 16 -162l401 455q-67 76 -170 76 q-109 0 -178 -91t-69 -278zM399 229q65 -79 172 -79q111 0 180.5 90t69.5 276q0 92 -20 170z" />
<glyph unicode="&#xf9;" horiz-adv-x="1173" d="M123 266v778h254v-712q0 -78 32.5 -111t96.5 -33q133 0 272 125v731h254v-1044h-254v139q-167 -164 -377 -164q-278 0 -278 291zM266 1475h285l192 -326h-196z" />
<glyph unicode="&#xfa;" horiz-adv-x="1173" d="M123 266v778h254v-712q0 -78 32.5 -111t96.5 -33q133 0 272 125v731h254v-1044h-254v139q-167 -164 -377 -164q-278 0 -278 291zM412 1149l192 326h285l-281 -326h-196z" />
<glyph unicode="&#xfb;" horiz-adv-x="1173" d="M123 266v778h254v-712q0 -78 32.5 -111t96.5 -33q133 0 272 125v731h254v-1044h-254v139q-167 -164 -377 -164q-278 0 -278 291zM219 1149l260 326h197l260 -326h-186l-172 156l-172 -156h-187z" />
<glyph unicode="&#xfc;" horiz-adv-x="1173" d="M123 266v778h254v-712q0 -78 32.5 -111t96.5 -33q133 0 272 125v731h254v-1044h-254v139q-167 -164 -377 -164q-278 0 -278 291zM242 1282q0 56 36 92.5t93 36.5t93 -36.5t36 -92.5t-36 -92.5t-93 -36.5t-93 36.5t-36 92.5zM655 1282q0 56 36 92.5t93 36.5t93 -36.5 t36 -92.5t-36 -92.5t-93 -36.5t-93 36.5t-36 92.5z" />
<glyph unicode="&#xfd;" horiz-adv-x="1038" d="M20 1044h261l241 -796l246 796h250l-344 -1019q-48 -142 -93 -230t-103.5 -142t-125.5 -74.5t-164 -20.5q-76 0 -120 8v209q64 -11 102 -11q45 0 77 10t63.5 38.5t59 79.5t58.5 133h-74zM356 1149l193 326h285l-281 -326h-197z" />
<glyph unicode="&#xfe;" horiz-adv-x="1187" d="M141 -430v1905h254v-568q137 162 320 162q178 0 285.5 -140.5t107.5 -391.5q0 -266 -118 -414t-300 -148q-168 0 -295 148v-553h-254zM395 291q107 -113 228 -113q107 0 169 84.5t62 253.5q0 168 -60.5 252t-162.5 84q-118 0 -236 -121v-440z" />
<glyph unicode="&#xff;" horiz-adv-x="1038" d="M20 1044h261l241 -796l246 796h250l-344 -1019q-48 -142 -93 -230t-103.5 -142t-125.5 -74.5t-164 -20.5q-76 0 -120 8v209q64 -11 102 -11q45 0 77 10t63.5 38.5t59 79.5t58.5 133h-74zM182 1282q0 56 36 92.5t93 36.5t93 -36.5t36 -92.5t-36 -92.5t-93 -36.5t-93 36.5 t-36 92.5zM596 1282q0 56 36 92.5t93 36.5t93 -36.5t36 -92.5t-36 -92.5t-93 -36.5t-93 36.5t-36 92.5z" />
<glyph unicode="&#x152;" horiz-adv-x="1921" d="M96 723q0 186 50 334t140.5 244.5t215 147t274.5 50.5q104 0 217 -24h834v-226h-619v-389h533v-213h-533v-430h625v-217h-864q-129 -25 -224 -25q-295 0 -472 194t-177 554zM354 733q0 -272 114.5 -406t309.5 -134q86 0 172 22v1032q-100 29 -174 29q-195 0 -308.5 -137 t-113.5 -406z" />
<glyph unicode="&#x153;" horiz-adv-x="1839" d="M80 518q0 137 39.5 244.5t108 173t156.5 99.5t191 34q109 0 204 -39.5t161 -116.5q141 156 371 156q204 0 321 -129t117 -379q0 -55 -6 -110h-676q22 -285 285 -285q134 0 315 88l53 -182q-84 -45 -191 -71t-212 -26q-252 0 -387 150q-66 -74 -160.5 -112t-202.5 -38 q-101 0 -188 33t-154.5 98t-106 170.5t-38.5 241.5zM334 518q0 -182 65.5 -269t171.5 -87t172 87t66 269t-66 269t-172 87t-171.5 -87t-65.5 -269zM1063 614h448q-1 136 -56.5 203.5t-151.5 67.5q-99 0 -163.5 -70t-76.5 -201z" />
<glyph unicode="&#x178;" horiz-adv-x="1292" d="M33 1475h274l342 -617l344 617h264l-483 -867v-608h-258v608zM309 1704q0 56 36 92.5t93 36.5t93 -36.5t36 -92.5t-36 -92.5t-93 -36.5t-93 36.5t-36 92.5zM723 1704q0 56 36 92.5t93 36.5t93 -36.5t36 -92.5t-36 -92.5t-93 -36.5t-93 36.5t-36 92.5z" />
<glyph unicode="&#x2c6;" horiz-adv-x="1024" d="M154 1149l260 326h196l260 -326h-186l-172 156l-172 -156h-186z" />
<glyph unicode="&#x2dc;" horiz-adv-x="1024" d="M154 1161q0 141 56 207t144 66q56 0 115.5 -28t108.5 -55.5t79 -27.5q64 0 64 98h149q0 -141 -56 -206.5t-144 -65.5q-44 0 -91.5 17.5t-80.5 38t-69.5 38t-61.5 17.5q-30 0 -47 -25.5t-17 -73.5h-149z" />
<glyph unicode="&#x2000;" horiz-adv-x="931" />
<glyph unicode="&#x2001;" horiz-adv-x="1862" />
<glyph unicode="&#x2002;" horiz-adv-x="931" />
<glyph unicode="&#x2003;" horiz-adv-x="1862" />
<glyph unicode="&#x2004;" horiz-adv-x="620" />
<glyph unicode="&#x2005;" horiz-adv-x="465" />
<glyph unicode="&#x2006;" horiz-adv-x="310" />
<glyph unicode="&#x2007;" horiz-adv-x="310" />
<glyph unicode="&#x2008;" horiz-adv-x="232" />
<glyph unicode="&#x2009;" horiz-adv-x="372" />
<glyph unicode="&#x200a;" horiz-adv-x="103" />
<glyph unicode="&#x2010;" horiz-adv-x="831" d="M113 547v182h606v-182h-606z" />
<glyph unicode="&#x2011;" horiz-adv-x="831" d="M113 547v182h606v-182h-606z" />
<glyph unicode="&#x2012;" horiz-adv-x="831" d="M113 547v182h606v-182h-606z" />
<glyph unicode="&#x2013;" horiz-adv-x="1024" d="M102 528v220h820v-220h-820z" />
<glyph unicode="&#x2014;" horiz-adv-x="2048" d="M102 528v220h1844v-220h-1844z" />
<glyph unicode="&#x2018;" horiz-adv-x="565" d="M94 1081q0 243 287 418l117 -108q-176 -106 -211 -242q62 -3 102.5 -43t40.5 -102q0 -63 -42.5 -105.5t-111.5 -42.5q-83 0 -132.5 61.5t-49.5 163.5z" />
<glyph unicode="&#x2019;" horiz-adv-x="565" d="M68 965q176 106 211 241q-62 3 -103 43.5t-41 102.5q0 63 42.5 105t111.5 42q83 0 132.5 -61.5t49.5 -163.5q0 -243 -287 -418z" />
<glyph unicode="&#x201a;" horiz-adv-x="565" d="M68 -248q176 106 211 242q-63 3 -103.5 43t-40.5 102q0 63 42.5 105.5t111.5 42.5q83 0 132.5 -62t49.5 -164q0 -242 -287 -417z" />
<glyph unicode="&#x201c;" horiz-adv-x="974" d="M94 1081q0 243 287 418l117 -108q-176 -106 -211 -242q62 -3 102.5 -43t40.5 -102q0 -63 -42.5 -105.5t-111.5 -42.5q-83 0 -132.5 61.5t-49.5 163.5zM504 1081q0 243 287 418l116 -108q-176 -106 -211 -242q63 -3 103.5 -43t40.5 -102q0 -63 -42.5 -105.5t-111.5 -42.5 q-83 0 -132.5 61.5t-49.5 163.5z" />
<glyph unicode="&#x201d;" horiz-adv-x="974" d="M68 965q176 106 211 241q-62 3 -103 43.5t-41 102.5q0 63 42.5 105t111.5 42q83 0 132.5 -61.5t49.5 -163.5q0 -243 -287 -418zM477 965q176 106 211 241q-62 3 -102.5 43.5t-40.5 102.5q0 63 42 105t111 42q83 0 133 -61.5t50 -163.5q0 -243 -287 -418z" />
<glyph unicode="&#x201e;" horiz-adv-x="974" d="M68 -248q176 106 211 242q-63 3 -103.5 43t-40.5 102q0 63 42.5 105.5t111.5 42.5q83 0 132.5 -62t49.5 -164q0 -242 -287 -417zM477 -248q176 106 211 242q-62 3 -102.5 43t-40.5 102q0 63 42 105.5t111 42.5q83 0 133 -62t50 -164q0 -242 -287 -417z" />
<glyph unicode="&#x2022;" horiz-adv-x="948" d="M211 719q0 114 74 189t188 75t188 -75t74 -189t-74 -189t-188 -75t-188 75t-74 189z" />
<glyph unicode="&#x2026;" horiz-adv-x="1581" d="M141 131q0 67 44 111.5t114 44.5t114 -44.5t44 -111.5t-44 -111.5t-114 -44.5t-114 44.5t-44 111.5zM633 131q0 67 44 111.5t114 44.5t113.5 -44.5t43.5 -111.5t-43.5 -111.5t-113.5 -44.5t-114 44.5t-44 111.5zM1124 131q0 67 44 111.5t114 44.5t114 -44.5t44 -111.5 t-44 -111.5t-114 -44.5t-114 44.5t-44 111.5z" />
<glyph unicode="&#x202f;" horiz-adv-x="372" />
<glyph unicode="&#x2039;" horiz-adv-x="675" d="M70 522l282 473h234l-271 -473l271 -473h-234z" />
<glyph unicode="&#x203a;" horiz-adv-x="675" d="M90 49l270 473l-270 473h234l282 -473l-282 -473h-234z" />
<glyph unicode="&#x205f;" horiz-adv-x="465" />
<glyph unicode="&#x20ac;" horiz-adv-x="1280" d="M37 498v168h199v55q0 51 2 78h-201v168h221q52 258 209 395t383 137q194 0 344 -110l-66 -222q-77 60 -141.5 89.5t-142.5 29.5q-124 0 -211.5 -79.5t-124.5 -239.5h430v-168h-453v-133h453v-168h-430q36 -161 125 -239.5t217 -78.5q144 0 287 113l63 -199 q-172 -119 -381 -119q-215 0 -366 132t-199 391h-217z" />
<glyph unicode="&#x2122;" horiz-adv-x="1599" d="M31 1335v140h559v-140h-195v-557h-170v557h-194zM637 778l68 697h210l117 -369q28 -90 37 -145h4q16 76 41 149l123 365h207l61 -697h-168l-18 324q-4 76 -4 188h-4q-12 -54 -45 -151l-125 -361h-148l-123 363q-31 91 -45 149h-4q0 -130 -2 -160l-24 -352h-158z" />
<glyph unicode="&#xe000;" horiz-adv-x="1044" d="M0 0v1044h1044v-1044h-1044z" />
<glyph unicode="&#xfb01;" horiz-adv-x="1220" d="M41 848v196h176v109q0 168 77.5 251t248.5 83q53 0 121 -10v-195q-36 10 -74 10q-68 0 -93.5 -33t-25.5 -106v-109h193v-196h-193v-848h-254v848h-176zM788 1335q0 62 41 102t109 40t108.5 -39.5t40.5 -102.5q0 -62 -40.5 -101.5t-108.5 -39.5t-109 39.5t-41 101.5z M811 0v1044h254v-1044h-254z" />
<glyph unicode="&#xfb02;" horiz-adv-x="1220" d="M41 848v196h176v109q0 168 77.5 251t248.5 83q53 0 121 -10v-195q-36 10 -74 10q-68 0 -93.5 -33t-25.5 -106v-109h193v-196h-193v-848h-254v848h-176zM813 0v1475h254v-1475h-254z" />
<glyph unicode="&#xfb03;" horiz-adv-x="1841" d="M41 848v196h176v109q0 168 78.5 251t253.5 83q55 0 123 -10v-195q-39 10 -76 10q-71 0 -98 -32.5t-27 -106.5v-109h367v109q0 168 77 251t248 83q53 0 121 -10v-195q-36 10 -74 10q-68 0 -93 -33t-25 -106v-109h192v-196h-192v-848h-254v848h-367v-848h-254v848h-176z M1411 1335q0 62 41 102t109 40t108.5 -39.5t40.5 -102.5q0 -62 -40.5 -101.5t-108.5 -39.5t-109 39.5t-41 101.5zM1434 0v1044h254v-1044h-254z" />
<glyph unicode="&#xfb04;" horiz-adv-x="1841" d="M41 848v196h176v109q0 168 78.5 251t253.5 83q55 0 123 -10v-195q-39 10 -76 10q-71 0 -98 -32.5t-27 -106.5v-109h367v109q0 168 77 251t248 83q53 0 121 -10v-195q-36 10 -74 10q-68 0 -93 -33t-25 -106v-109h192v-196h-192v-848h-254v848h-367v-848h-254v848h-176z M1434 0v1475h254v-1475h-254z" />
</font>
</defs>
</svg>
